<?xml version="1.0" encoding="utf-8"?>
<!-- Generator: Adobe Illustrator 19.2.1, SVG Export Plug-In . SVG Version: 6.00 Build 0)  -->
<svg version="1.1" id="Layer_1" xmlns="http://www.w3.org/2000/svg" xmlns:xlink="http://www.w3.org/1999/xlink" x="0px" y="0px"
	 viewBox="0 0 29.6 33.5" style="enable-background:new 0 0 29.6 33.5;" xml:space="preserve">
<style type="text/css">
	.st0{fill:#FFFFFF;}
	.st1{fill:#0991CA;}
</style>
<title>icon-1</title>
<g>
	<path class="st0" d="M6.7,0h5.8l-0.2,0.1c-0.6,0.3-0.9,1-0.7,1.6c0,0,0,0,0,0.1c0.3,0.6,1,0.9,1.6,0.6c0,0,0.1,0,0.1,0
		c0.1-0.1,0.2-0.1,0.3-0.1c0.6,0.1,1.2,0.3,1.8,0.4c1.1,0.2,2,1.2,2,2.3c0.1,0.8,0.1,1.6,0,2.3c-0.3,2.5-1.3,4.9-2.8,6.9
		c-0.1,0.1-0.2,0.2-0.3,0.2c-0.3,0.2-0.5,0.3-0.8,0.5c-0.5,0.4-1,1-1.6,1.4c-1.2,0.9-2.8,1.1-4.2,0.4c-0.8-0.4-1.6-1-2.2-1.7
		c-0.2-0.2-0.5-0.4-0.8-0.6c-0.1-0.1-0.3-0.2-0.4-0.3c-0.8-1.1-1.5-2.4-2-3.7c-0.7-1.7-1-3.6-0.8-5.5c0-1,0.7-1.9,1.6-2.2
		C4,2.7,4.7,2.5,5.5,2.3c0.1,0,0.2,0,0.3,0.1c0.4,0.3,0.9,0.2,1.3-0.1C7.5,2,7.7,1.6,7.7,1.1C7.6,0.6,7.2,0.2,6.7,0z"/>
	<path class="st1" d="M6.7,0c0.5,0.2,0.9,0.6,0.9,1.1C7.7,1.6,7.5,2,7.1,2.3C6.7,2.5,6.3,2.6,5.9,2.3C5.8,2.3,5.7,2.2,5.5,2.3
		C4.8,2.4,4.1,2.6,3.4,2.9C2.4,3.2,1.7,4,1.7,5.1c-0.2,1.9,0.1,3.7,0.8,5.5c0.5,1.3,1.2,2.6,2,3.7c0.1,0.1,0.2,0.2,0.4,0.3
		c0.3,0.2,0.5,0.4,0.8,0.6c0.6,0.7,1.4,1.3,2.2,1.7c1.4,0.7,3,0.5,4.2-0.4c0.6-0.4,1-0.9,1.6-1.4c0.3-0.2,0.5-0.3,0.8-0.5
		c0.1-0.1,0.2-0.1,0.3-0.2c1.5-2,2.5-4.4,2.8-6.9c0.1-0.8,0.1-1.6,0-2.3c0-1.1-0.9-2.1-2-2.3c-0.6-0.2-1.2-0.3-1.8-0.4
		c-0.1,0-0.2,0-0.3,0.1c-0.6,0.3-1.3,0.1-1.7-0.4c0,0,0-0.1,0-0.1c-0.3-0.6,0-1.3,0.6-1.6c0,0,0,0,0.1,0L12.6,0h0.6
		c0.3,0.2,0.5,0.4,0.8,0.6c0.1,0.1,0.1,0.1,0.2,0.1c0.8,0.2,1.7,0.4,2.5,0.7C18,2,18.9,3.3,19,4.7c0.2,2,0,4-0.7,5.9
		c-0.5,1.6-1.3,3.2-2.3,4.6c-0.1,0.2-0.2,0.4-0.2,0.6c-0.1,0.2-0.1,0.4-0.3,0.6c-1.1,1.4-2.7,2.4-4.4,3c-0.2,0.1-0.5,0.1-0.8,0.2
		c0,0.1,0,0.2,0,0.3c0,1.7,0,3.4,0,5.1c0,3,1.8,5.7,4.7,6.6c3.2,1.1,6.8-0.3,8.4-3.3c0.5-1,0.8-2.2,0.8-3.3c0-1.6,0-3.1,0-4.6
		c-0.5-0.2-0.9-0.3-1.3-0.5C21,18.9,20,17,20.3,15c0.3-2.6,2.6-4.4,5.2-4.1c2.6,0.3,4.4,2.6,4.1,5.2c-0.2,2-1.7,3.6-3.6,4
		c-0.2,0-0.3,0.2-0.3,0.3c0,0,0,0,0,0c0,1.5,0,2.9,0,4.4c0,4.3-3.1,7.9-7.4,8.5c-0.1,0-0.2,0-0.2,0.1h-1.7c-0.4-0.1-0.8-0.2-1.1-0.2
		c-2.9-0.7-5.2-2.8-6.1-5.5c-0.3-0.9-0.4-1.8-0.4-2.7c0-1.8,0-3.6,0-5.4C8.2,19.4,7.6,19.2,7,19c-1.3-0.6-2.4-1.5-3.3-2.5
		c-0.1-0.2-0.2-0.3-0.2-0.5c0-0.3-0.1-0.5-0.3-0.8c-1.4-2-2.4-4.2-2.8-6.6C0,7.3-0.1,5.9,0.1,4.6c0.2-1.6,1.4-3,3-3.3
		C3.8,1.1,4.4,0.9,5,0.7c0.1,0,0.2,0,0.3-0.1L6.1,0H6.7L6.7,0z M25,18.7c1.7,0,3.1-1.4,3.1-3.1s-1.4-3.1-3.1-3.1s-3.1,1.4-3.1,3.1
		c0,0,0,0,0,0.1C21.9,17.3,23.3,18.7,25,18.7z"/>
	<path class="st0" d="M25,18.7c-1.7,0-3.1-1.4-3-3.1s1.4-3.1,3.1-3c1.7,0,3.1,1.4,3,3.1c0,0,0,0,0,0C28.1,17.4,26.7,18.7,25,18.7z
		 M25,13.3c-1.3,0-2.3,1-2.4,2.3c0,0,0,0,0,0.1c0,1.3,1,2.3,2.3,2.3s2.3-1,2.3-2.3C27.3,14.4,26.3,13.3,25,13.3L25,13.3z"/>
</g>
</svg>
