<svg id="Layer_1" data-name="Layer 1" xmlns="http://www.w3.org/2000/svg" viewBox="0 0 22.3 34.57">
  <defs>
    <style>
      .cls-1 {
        fill: #0991ca;
      }
    </style>
  </defs>
  <title>icon-5</title>
  <path class="cls-1" d="M11.9,0l1.86,1.78a5.3,5.3,0,0,1,1.06-.39A2.53,2.53,0,0,1,17.9,3.93c0,0.83,0,1.66,0,2.58l0.61-.26a2.55,2.55,0,0,1,3.71,2.27c0,5.18.18,10.37,0,15.54A11,11,0,0,1,10.11,34.53,11.19,11.19,0,0,1,0,23.31C0,19.94,0,16.57,0,13.21c0-.72.25-1,1-0.92,1,0.18,2,.4,3.11.61,0-.39,0-1,0-1.62,0-1.87,0-3.74,0-5.61C4.08,3.07,5.82,2,8.15,3.09a1.3,1.3,0,0,0,.29,0A2.8,2.8,0,0,1,10,0h1.9ZM0.84,13.16c0,1.84,0,3.61,0,5.39A57.59,57.59,0,0,0,1,24.84c0.68,5.56,5.43,9.25,11.15,8.86a10.31,10.31,0,0,0,9.25-10.21c0-4.89,0-9.79,0-14.68a1.78,1.78,0,0,0-1.76-2,1.75,1.75,0,0,0-1.74,2c0,2.65,0,5.3,0,7.95a3.41,3.41,0,0,1-.41,1.07,3.54,3.54,0,0,1-.38-1.07c0-4.2,0-8.41,0-12.61a1.76,1.76,0,0,0-2.27-1.93,1.68,1.68,0,0,0-1.24,1.92q0,6.22,0,12.44a2.26,2.26,0,0,1,0,.69,2.36,2.36,0,0,1-.4.57,2.53,2.53,0,0,1-.38-0.55,1.85,1.85,0,0,1,0-.6q0-6.82,0-13.65a4.28,4.28,0,0,0-.09-1,1.74,1.74,0,0,0-3.41.2,7.2,7.2,0,0,0,0,.95c0,4.55,0,9.1,0,13.65a1.59,1.59,0,0,1-.36,1c-0.7,0-.4-0.63-0.41-1,0-1.7,0-3.4,0-5.1,0-2.1,0-4.2,0-6.31A1.77,1.77,0,0,0,6.06,3.53,1.85,1.85,0,0,0,4.86,5.6q0,7.39,0,14.77c0,0.22,0,.45.05,0.69,0.18,0,.32.07,0.46,0.09A10.83,10.83,0,0,1,10,22.65a2.1,2.1,0,0,1,.45.7,2.64,2.64,0,0,1-.83,0c-0.91-.33-1.78-0.8-2.72-1.06a24.71,24.71,0,0,0-2.84-.46c0-1.92,0-3.84,0-5.77C4.06,13.86,3.13,13,.84,13.16Z"/>
</svg>
