<svg id="Layer_1" data-name="Layer 1" xmlns="http://www.w3.org/2000/svg" viewBox="0 0 25.39 35.91">
  <defs>
    <style>
      .cls-1 {
        fill: none;
        stroke: #028ec8;
        stroke-miterlimit: 10;
      }
    </style>
  </defs>
  <title>icon-3</title>
  <path class="cls-1" d="M19.49,3.4C15.1,6.23,10.84,9,6.59,11.71a16.39,16.39,0,0,0-2.07,1.51,3.13,3.13,0,0,0-.43,4.53A3.15,3.15,0,0,0,9,17.35C12,12.71,16.61,10,21.31,7.46c0.23-.12.47-0.21,0.88-0.39l2.57,3.19c-3.23,4.42-8.89,4-13.61,6.68,6.25,3.61,5.59,10.3,8.47,15.23C17.06,34,16.81,34,15.27,31.46c-1.39-2.31-2.8-4.61-4-7A15.72,15.72,0,0,1,10,20.57c-0.28-1.32-.65-2-2.25-1.47a17.51,17.51,0,0,1-3.88.32,13.2,13.2,0,0,0,1.14,3.26c2.38,3.47,4.92,6.83,7.39,10.23a4.45,4.45,0,0,1,.95,2.17A4.33,4.33,0,0,1,12,34.4,63.93,63.93,0,0,1,1.36,19.52a7,7,0,0,1,.83-7.9A41.52,41.52,0,0,1,15.72.59,2.22,2.22,0,0,1,17.64,1,13.94,13.94,0,0,1,19.49,3.4Z"/>
</svg>
