<svg id="Layer_1" data-name="Layer 1" xmlns="http://www.w3.org/2000/svg" viewBox="0 0 414.58 82.4">
  <defs>
    <style>
      .cls-1, .cls-3 {
        fill: #999;
      }

      .cls-1, .cls-2 {
        fill-rule: evenodd;
      }

      .cls-2 {
        fill: #666766;
      }
    </style>
  </defs>
  <title>redimed-bw</title>
  <g>
    <path class="cls-1" d="M35.07,2V28.87a8.26,8.26,0,0,1-8.25,8.28H0c0.24-1.85.6-3.66,1-5.39A40.62,40.62,0,0,1,35.07,2h0Z"/>
    <path class="cls-2" d="M80.15,37H53.29A8.3,8.3,0,0,1,45,28.75V2A40.47,40.47,0,0,1,79.83,34.87l0,0.36,0,0.2C80,36,80.07,36.52,80.15,37h0Z"/>
    <path class="cls-1" d="M35.07,82.36V55.58a8.26,8.26,0,0,0-8.25-8.28H0a37.55,37.55,0,0,0,.72,4.14A40.37,40.37,0,0,0,35.07,82.36h0Z"/>
    <path class="cls-1" d="M80.15,47.37H53.29A8.26,8.26,0,0,0,45,55.62V82.4A40.47,40.47,0,0,0,79.83,49.55c0-.12,0-0.24,0-0.4l0-.16c0.12-.52.16-1.09,0.24-1.61h0Z"/>
    <path class="cls-1" d="M121,82.4h13.59l-15-24,0.28-.16c7-2.61,10.86-7.88,10.86-15.4,0-7-3.38-12.15-9.73-15a26.31,26.31,0,0,0-6.47-1.81,26.65,26.65,0,0,0-3.06-.24H92.26v11h22.88a5.23,5.23,0,0,1,5.19,5.19h0a5.22,5.22,0,0,1-5.19,5.15H114.9a7.18,7.18,0,0,1-.93.08H92.26V82.4h11.58V59.88H107Z"/>
    <rect class="cls-3" x="236.63" y="25.78" width="11.22" height="56.54"/>
    <path class="cls-2" d="M371.55,25.86V82.4h10.3c18.82,0,32.73-7.72,32.73-28.27,0-13.23-5.47-22.92-18.62-26.62a53.79,53.79,0,0,0-14.12-1.65h-10.3Zm11.58,45.28v-34l0.24,0c0.68,0,1.37,0,2,0a22.23,22.23,0,0,1,7.28,1.13c7.44,2.45,10.26,8.49,10.26,16S400,67.48,392.67,70a23.8,23.8,0,0,1-7.28,1.21c-0.68,0-1.33,0-2,0h-0.28Z"/>
    <polygon class="cls-2" points="305.32 82.4 316.94 82.4 316.94 25.78 305.64 25.78 286.82 66.08 267.23 25.78 255.93 25.78 255.93 82.4 267.52 82.4 267.52 52.88 281.87 82.4 291.97 82.4 305.32 53.81 305.32 82.4"/>
    <path class="cls-1" d="M185.48,25.86V82.4h10.3c18.78,0,32.74-7.72,32.74-28.27,0-13.23-5.47-22.92-18.62-26.62a53.59,53.59,0,0,0-14.12-1.65h-10.3Zm11.58,45.28v-34l0.28,0c0.64,0,1.33,0,2,0a22.73,22.73,0,0,1,7.28,1.13c7.44,2.45,10.26,8.49,10.26,16S213.95,67.48,206.63,70a24.06,24.06,0,0,1-7.32,1.21c-0.64,0-1.33,0-2,0h-0.28Z"/>
    <polygon class="cls-1" points="177.39 36.88 177.39 25.86 138.91 25.86 138.91 82.4 177.39 82.4 177.39 71.38 150.49 71.38 150.49 58.92 172.85 58.92 172.85 47.37 150.49 47.37 150.49 36.88 177.39 36.88"/>
    <polygon class="cls-1" points="98.61 4.06 98.61 17.73 95.55 17.73 95.55 4.06 92.26 4.06 92.26 1.37 101.87 1.37 101.87 4.06 98.61 4.06"/>
    <path class="cls-1" d="M110.75,11.62a5.86,5.86,0,0,0-.6-2.9,1.83,1.83,0,0,0-1.73-1,1.89,1.89,0,0,0-1.77,1,5.89,5.89,0,0,0-.56,2.9,5.72,5.72,0,0,0,.56,2.86,1.89,1.89,0,0,0,1.77,1,1.83,1.83,0,0,0,1.73-1,5.69,5.69,0,0,0,.6-2.86h0Zm2.94,0a8.39,8.39,0,0,1-.36,2.53,5.87,5.87,0,0,1-1,2,5.43,5.43,0,0,1-1.65,1.37,5.13,5.13,0,0,1-2.25.48,5,5,0,0,1-2.25-.48,5.61,5.61,0,0,1-1.69-1.37,5.92,5.92,0,0,1-1-2,8.39,8.39,0,0,1-.36-2.53,8.31,8.31,0,0,1,.36-2.49,5.93,5.93,0,0,1,1-2,5,5,0,0,1,1.69-1.33,5,5,0,0,1,2.25-.48,5.14,5.14,0,0,1,2.25.48,4.81,4.81,0,0,1,1.65,1.33,5.88,5.88,0,0,1,1,2,8.31,8.31,0,0,1,.36,2.49h0Z"/>
    <path class="cls-1" d="M121.69,17.82a8.49,8.49,0,0,1-1,.08,3.15,3.15,0,0,1-2.49-1,4.4,4.4,0,0,1-.8-2.85V7.84h-1.49V5.55h1.49V2.86l2.9-.88V5.55h2.21V7.84h-2.21v6a1.33,1.33,0,0,0,.4,1,1.41,1.41,0,0,0,.92.28,1.5,1.5,0,0,0,.48-0.08l0.4-.12v2.57a5.88,5.88,0,0,1-.76.24h0Z"/>
    <path class="cls-1" d="M131.14,11.86l-1.53.12a5.45,5.45,0,0,0-1.33.28,2.4,2.4,0,0,0-.89.64,1.83,1.83,0,0,0-.32,1.09,1.61,1.61,0,0,0,.6,1.33,3,3,0,0,0,1.81.48,3.76,3.76,0,0,0,.92-0.08,2.43,2.43,0,0,0,.72-0.16v-3.7Zm2.78,5.27a5.56,5.56,0,0,1-.8.32,5.54,5.54,0,0,1-1,.28,9.31,9.31,0,0,1-1.21.2c-0.4,0-.85.08-1.29,0.08a6.25,6.25,0,0,1-3.94-1,3.45,3.45,0,0,1-1.33-2.9,3.15,3.15,0,0,1,.6-2,3.75,3.75,0,0,1,1.49-1.25,7.13,7.13,0,0,1,2.21-.64,16.85,16.85,0,0,1,2.53-.28V9.25a1.53,1.53,0,0,0-.56-1.33,2.73,2.73,0,0,0-1.61-.4,6.94,6.94,0,0,0-1.77.24,8.09,8.09,0,0,0-1.49.48L125,6.15a10.79,10.79,0,0,1,1.89-.56,9.56,9.56,0,0,1,2.45-.28,5.1,5.1,0,0,1,3.42,1,4,4,0,0,1,1.21,3.3v7.52Z"/>
    <rect class="cls-3" x="136.73" width="2.94" height="17.73"/>
    <polygon class="cls-1" points="155.35 17.73 155.35 10.74 150.53 10.74 150.53 17.73 147.47 17.73 147.47 1.37 150.53 1.37 150.53 8.12 155.35 8.12 155.35 1.37 158.37 1.37 158.37 17.73 155.35 17.73"/>
    <path class="cls-1" d="M168.71,10.25a3.11,3.11,0,0,0-.6-2.05,2.09,2.09,0,0,0-1.65-.68,2.23,2.23,0,0,0-1.85.88,3.93,3.93,0,0,0-.8,2.57Zm2.86,0.56v0.52c0,0.16,0,.32,0,0.52l-7.52,1a3.08,3.08,0,0,0,1.08,2,3.37,3.37,0,0,0,2.13.64,6.62,6.62,0,0,0,1.77-.2,4.59,4.59,0,0,0,1.49-.56l0.85,2.33a8.07,8.07,0,0,1-1.89.6A9.42,9.42,0,0,1,167,18a6.18,6.18,0,0,1-2.53-.48,4.73,4.73,0,0,1-1.85-1.33,6.05,6.05,0,0,1-1.13-2,8.66,8.66,0,0,1-.36-2.57A8.85,8.85,0,0,1,161.51,9a5.51,5.51,0,0,1,1.09-2,4.6,4.6,0,0,1,1.69-1.33,5,5,0,0,1,2.25-.44,5.78,5.78,0,0,1,2.13.36,4.64,4.64,0,0,1,1.61,1.13,5.73,5.73,0,0,1,1,1.77,7.76,7.76,0,0,1,.32,2.25h0Z"/>
    <path class="cls-1" d="M179.72,11.86l-1.57.12a5.55,5.55,0,0,0-1.29.28,2.11,2.11,0,0,0-.88.64,1.6,1.6,0,0,0-.36,1.09,1.54,1.54,0,0,0,.64,1.33,2.8,2.8,0,0,0,1.77.48,3.93,3.93,0,0,0,1-.08,3.22,3.22,0,0,0,.72-0.16v-3.7Zm2.78,5.27a8.22,8.22,0,0,1-.8.32,7.93,7.93,0,0,1-1,.28c-0.4.08-.8,0.16-1.21,0.2s-0.89.08-1.33,0.08a6.32,6.32,0,0,1-3.94-1,3.53,3.53,0,0,1-1.29-2.9,3.4,3.4,0,0,1,.56-2A3.88,3.88,0,0,1,175,10.82a7.21,7.21,0,0,1,2.17-.64,17.42,17.42,0,0,1,2.57-.28V9.25a1.46,1.46,0,0,0-.6-1.33,2.73,2.73,0,0,0-1.61-.4,6.63,6.63,0,0,0-1.73.24,8.63,8.63,0,0,0-1.53.48l-0.76-2.09a12.64,12.64,0,0,1,1.93-.56,9.46,9.46,0,0,1,2.41-.28,5.21,5.21,0,0,1,3.46,1,4,4,0,0,1,1.21,3.3v7.52Z"/>
    <rect class="cls-3" x="185.28" width="2.94" height="17.73"/>
    <path class="cls-1" d="M196.29,17.82a8.49,8.49,0,0,1-1,.08,3.1,3.1,0,0,1-2.49-1,4.39,4.39,0,0,1-.8-2.85V7.84h-1.49V5.55H192V2.86l2.9-.88V5.55H197V7.84h-2.17v6a1.21,1.21,0,0,0,.4,1,1.41,1.41,0,0,0,.93.28,2,2,0,0,0,.48-0.08A1.89,1.89,0,0,0,197,15v2.57a3.8,3.8,0,0,1-.72.24h0Z"/>
    <path class="cls-1" d="M206.19,17.73v-8a1.88,1.88,0,0,0-.56-1.49,2.11,2.11,0,0,0-1.57-.52,3.35,3.35,0,0,0-.88.12,2.46,2.46,0,0,0-.8.36v9.49h-2.9V0h2.9V5.91a7.81,7.81,0,0,1,1.17-.4,7,7,0,0,1,1.29-.16,4.62,4.62,0,0,1,3.22,1,4,4,0,0,1,1.13,3.06v8.28h-3Z"/>
    <path class="cls-1" d="M226.05,13a5.64,5.64,0,0,1-.36,2.05,4.67,4.67,0,0,1-1,1.57,5.18,5.18,0,0,1-1.69,1,6.45,6.45,0,0,1-2.25.36,8.41,8.41,0,0,1-2.25-.28,6.09,6.09,0,0,1-1.73-.6l1-2.78a6.56,6.56,0,0,0,1.29.56,7,7,0,0,0,1.57.2,2.65,2.65,0,0,0,1.77-.52,1.88,1.88,0,0,0,.64-1.45,1.54,1.54,0,0,0-.2-0.76,1.31,1.31,0,0,0-.44-0.6,2.64,2.64,0,0,0-.68-0.48,8.14,8.14,0,0,0-.8-0.44,11.05,11.05,0,0,1-1.37-.72,7.61,7.61,0,0,1-1.29-1,5.42,5.42,0,0,1-.93-1.37,3.81,3.81,0,0,1-.4-1.85,5.22,5.22,0,0,1,.36-2,4.13,4.13,0,0,1,1-1.53,4.55,4.55,0,0,1,1.57-1A7.16,7.16,0,0,1,222,1.13a8.28,8.28,0,0,1,2.09.24,4.72,4.72,0,0,1,1.57.64l-1,2.57a5,5,0,0,0-2.57-.76,2.13,2.13,0,0,0-1.57.56,1.71,1.71,0,0,0-.56,1.37,1.54,1.54,0,0,0,.16.76,1.78,1.78,0,0,0,.48.6,3.33,3.33,0,0,0,.72.52c0.24,0.16.52,0.28,0.8,0.44s0.85,0.48,1.33.72a7.59,7.59,0,0,1,1.29,1,4.94,4.94,0,0,1,1,1.37,4.34,4.34,0,0,1,.36,1.85h0Z"/>
    <path class="cls-1" d="M235.06,11.62a6.39,6.39,0,0,0-.56-2.9,1.89,1.89,0,0,0-1.77-1,1.83,1.83,0,0,0-1.73,1,5.86,5.86,0,0,0-.6,2.9,5.69,5.69,0,0,0,.6,2.86,1.83,1.83,0,0,0,1.73,1,1.89,1.89,0,0,0,1.77-1,6.2,6.2,0,0,0,.56-2.86h0Zm3,0a8.39,8.39,0,0,1-.36,2.53,5.31,5.31,0,0,1-1,2A5.45,5.45,0,0,1,235,17.53a5,5,0,0,1-2.25.48,5.13,5.13,0,0,1-2.25-.48,5.45,5.45,0,0,1-1.65-1.37,5.24,5.24,0,0,1-1-2,8.39,8.39,0,0,1-.36-2.53,8.31,8.31,0,0,1,.36-2.49,5.24,5.24,0,0,1,1-2,4.83,4.83,0,0,1,1.65-1.33,5.14,5.14,0,0,1,2.25-.48,5,5,0,0,1,2.25.48,4.83,4.83,0,0,1,1.65,1.33,5.32,5.32,0,0,1,1,2,8.31,8.31,0,0,1,.36,2.49h0Z"/>
    <rect class="cls-3" x="240.93" width="2.94" height="17.73"/>
    <path class="cls-1" d="M254.37,17.73a11.4,11.4,0,0,1-2.65.28,5.26,5.26,0,0,1-3.62-1.09,4.27,4.27,0,0,1-1.25-3.46V5.55h2.94v8a1.71,1.71,0,0,0,1.93,1.93,7.37,7.37,0,0,0,1-.08,4.88,4.88,0,0,0,.68-0.2V5.55h2.94V17.13a8,8,0,0,1-2,.6h0Z"/>
    <path class="cls-1" d="M263.82,17.82a8.49,8.49,0,0,1-1,.08,3.1,3.1,0,0,1-2.49-1,4.39,4.39,0,0,1-.8-2.85V7.84H258V5.55h1.49V2.86l2.9-.88V5.55h2.17V7.84h-2.17v6a1.21,1.21,0,0,0,.4,1,1.42,1.42,0,0,0,.93.28,2,2,0,0,0,.48-0.08,1.89,1.89,0,0,0,.36-0.12v2.57a3.83,3.83,0,0,1-.72.24h0Z"/>
    <path class="cls-1" d="M267,17.73V5.55h3V17.73h-3Zm3.18-15.8a1.69,1.69,0,1,1-3.38,0A1.58,1.58,0,0,1,268.48.32a1.67,1.67,0,0,1,1.21.44,1.61,1.61,0,0,1,.48,1.17h0Z"/>
    <path class="cls-1" d="M280.06,11.62a6.39,6.39,0,0,0-.56-2.9,1.87,1.87,0,0,0-1.73-1,1.85,1.85,0,0,0-1.77,1,5.86,5.86,0,0,0-.6,2.9,5.69,5.69,0,0,0,.6,2.86,1.85,1.85,0,0,0,1.77,1,1.87,1.87,0,0,0,1.73-1,6.2,6.2,0,0,0,.56-2.86h0Zm3,0a8.39,8.39,0,0,1-.36,2.53,5.34,5.34,0,0,1-1,2A4.66,4.66,0,0,1,277.77,18a5.19,5.19,0,0,1-2.29-.48,5.43,5.43,0,0,1-1.65-1.37,5.24,5.24,0,0,1-1-2,8.39,8.39,0,0,1-.36-2.53,8.31,8.31,0,0,1,.36-2.49,5.24,5.24,0,0,1,1-2,4.82,4.82,0,0,1,1.65-1.33,5.2,5.2,0,0,1,2.29-.48,5,5,0,0,1,2.21.48,4.48,4.48,0,0,1,1.65,1.33,5.34,5.34,0,0,1,1,2,8.31,8.31,0,0,1,.36,2.49h0Z"/>
    <path class="cls-1" d="M292.65,17.73v-8a1.83,1.83,0,0,0-.52-1.45,2,2,0,0,0-1.53-.52,3.77,3.77,0,0,0-1,.08,3.33,3.33,0,0,0-.8.2v9.69h-2.9V6.15a12.27,12.27,0,0,1,4.62-.84,5.82,5.82,0,0,1,3.86,1,3.82,3.82,0,0,1,1.21,3.06v8.32h-3Z"/>
    <rect class="cls-3" x="310.27" y="11.62" width="104.32" height="2.53"/>
    <polygon class="cls-2" points="363.47 36.88 363.47 25.86 324.99 25.86 324.99 82.4 363.47 82.4 363.47 71.38 336.57 71.38 336.57 58.92 358.93 58.92 358.93 47.37 336.57 47.37 336.57 36.88 363.47 36.88"/>
    <path class="cls-1" d="M306.28,14.12a3.42,3.42,0,0,1-1.17,2.69,5.5,5.5,0,0,1-3.5,1,7.21,7.21,0,0,1-2.05-.28,5.81,5.81,0,0,1-1.61-.64l1-2.21a1.27,1.27,0,0,0,.52.24,2.47,2.47,0,0,0,.72.28c0.16,0.08.44,0.08,0.68,0.2h0.64a1.78,1.78,0,0,0,1.25-.36,1.07,1.07,0,0,0,.56-0.92,1,1,0,0,0-.56-1,3,3,0,0,0-1.25-.64c-0.36-.16-0.72-0.36-1.09-0.52a4.58,4.58,0,0,1-1-.64,9.32,9.32,0,0,1-.8-1,3.35,3.35,0,0,1-.28-1.53,3.28,3.28,0,0,1,1.09-2.53,4.94,4.94,0,0,1,3.14-1,6.6,6.6,0,0,1,3.5.88l-0.92,2.05a2.71,2.71,0,0,0-1-.44,4.15,4.15,0,0,0-1.29-.28,1.52,1.52,0,0,0-1.13.36,1.32,1.32,0,0,0-.48.93,1.09,1.09,0,0,0,.48,1,6.16,6.16,0,0,0,1.25.64,6.91,6.91,0,0,0,1.17.44,2.57,2.57,0,0,1,1,.72,3.18,3.18,0,0,1,.84,1,4.52,4.52,0,0,1,.24,1.53h0Z"/>
  </g>
</svg>
