<svg id="Layer_1" data-name="Layer 1" xmlns="http://www.w3.org/2000/svg" xmlns:xlink="http://www.w3.org/1999/xlink" viewBox="0 0 28.49 34.8">
  <defs>
    <style>
      .cls-1, .cls-3 {
        fill: none;
      }

      .cls-2 {
        clip-path: url(#clip-path);
      }

      .cls-3 {
        stroke: #0991ca;
        stroke-miterlimit: 10;
      }

      .cls-4 {
        fill: #0991ca;
      }
    </style>
    <clipPath id="clip-path">
      <polygon class="cls-1" points="8.71 9.9 10.53 15.06 13.58 20.29 17.66 21.21 20.16 21.21 22.16 18.14 24.66 15.06 26.92 11.12 25.6 6.4 24.66 3.99 19.73 3.25 14.66 3.25 8.25 7.1 8.71 9.9"/>
    </clipPath>
  </defs>
  <title>icon-4</title>
  <g>
    <g class="cls-2">
      <g>
        <path class="cls-3" d="M13.69,11.89h8c0,0.37,0,.72-0.07,1.08a5.18,5.18,0,0,1-1.5,3.18,1.51,1.51,0,0,0-.37,1.19,0.93,0.93,0,0,0,.73.91,14.33,14.33,0,0,1,3.32,1.58,5.15,5.15,0,0,1,1.46,1.33,1.84,1.84,0,0,1,.36,1.14c0,0.24,0,.48,0,0.71a1.64,1.64,0,0,1-.77,1.12,5.81,5.81,0,0,1-2.2.84,20.66,20.66,0,0,1-3.51.37,34.93,34.93,0,0,1-4.34-.09,11.85,11.85,0,0,1-3.39-.69,3.32,3.32,0,0,1-1.15-.71,1.5,1.5,0,0,1-.47-1.06A2.44,2.44,0,0,1,10,21.25a4.94,4.94,0,0,1,1.11-1.12,13.71,13.71,0,0,1,3.59-1.87,1.24,1.24,0,0,0,.78-1.69,1.1,1.1,0,0,0-.25-0.36,5.5,5.5,0,0,1-1.26-2A7.5,7.5,0,0,1,13.69,11.89Z"/>
        <path class="cls-3" d="M23.25,11.07H12.06a1.81,1.81,0,0,1,.29-1.19,1.22,1.22,0,0,1,.51-0.31,0.33,0.33,0,0,0,.26-0.35,4,4,0,0,1,2.81-3.58c0.15,0,.19,0,0.22.14,0.13,0.42.26,0.84,0.37,1.26s0.2,0.93.34,1.4q0-.1,0-0.2,0-1.39,0-2.78c0-.6.14-0.73,0.72-0.73h0.28a0.52,0.52,0,0,1,.6.59c0,1,0,1.94,0,2.9q0,0.11,0,.22h0c0.09-.41.16-0.82,0.26-1.23s0.26-.95.4-1.42a0.18,0.18,0,0,1,.29-0.13,4,4,0,0,1,2.69,3,3.73,3.73,0,0,1,.06.6,0.23,0.23,0,0,0,.16.25A1,1,0,0,1,23,10,2.32,2.32,0,0,1,23.25,11.07Z"/>
      </g>
    </g>
    <path class="cls-4" d="M26.49,5.76H24A1.85,1.85,0,0,1,22.63,4V2.32A1.67,1.67,0,0,0,20.91,0H14.64a1.89,1.89,0,0,0-2.1,2V4.21a1.35,1.35,0,0,1-1.42,1.42h-2s-2.25.12-2.25,2.14v6.29S6.67,15.9,9,15.9h2.37s1.13-.59,1.13.89a25.23,25.23,0,0,0,.65,5.58c-1.19.24-4.27,2.69-4.27,2.69l0.42,0.45L8.39,26s-2-2.25-5.34-.36L3.41,26.1a4.39,4.39,0,0,0-3.29,3,4.59,4.59,0,0,0,0,2.14,0.62,0.62,0,0,0,.8.65c0.83-.18.36-1.36-0.06-1.19-0.3-1.3-.12-3.2,2.67-4.15l0.18,0.47a6.56,6.56,0,0,1,2.61-1c1.42-.18,2.55.36,2.14,1.9a9.73,9.73,0,0,1-1.13,2.61l0.42,0.59s-1,2.67-2.43,2.85a3.11,3.11,0,0,1-1.66,0s-0.42-1.07-1.07-.24,0.71,1.07.89,0.65a3.59,3.59,0,0,0,2.73-.3A7.82,7.82,0,0,0,8.33,31.5l0.6,0.3S11,27.6,9,26.34l0.65-.42,0.3,0.47s2.08-3,3.62-3c0.3,2.14,4.23,6.23,4.93,6.35l0.28-.12v0.57a4.46,4.46,0,0,0,.71,3.23c1.07,1.42,4,2.25,5.64,0s0-4.09-1.19-4.92-3.26-.36-4.45.83H18.83l0.06-.53s-4.47-3-4.25-5.87a19.86,19.86,0,0,1,5.73-1.42c1.25,0,2.25-.83,2.31-2.61s0.18-2.61.18-2.61,0-.59,1.13-0.59h1.8s2.47,0.18,2.65-2,0-5.4,0-5.4S29,5.76,26.49,5.76ZM27.08,8v5c0,1.9-1.19,1.48-1.19,1.48s-0.89.06-2.49,0A1.58,1.58,0,0,0,21.67,16s0,0,0,2-1.24,2.37-1.24,2.37l-1.95.3c-1.95.3-4.24,0.89-4.24,0.89a37.45,37.45,0,0,1-.37-5c0-2.37-1.61-1.9-1.61-1.9H9.82c-2,0-1.48-1.54-1.48-1.54V8.6c0-2.31,1.36-1.9,1.36-1.9h2.14a2.32,2.32,0,0,0,2-1.42V2.61c0-1.66,1.85-1.3,1.85-1.3h4.41c1.42,0,1.26.83,1.26,0.83V4.75a2,2,0,0,0,2.07,2.08H25.3C27.14,6.82,27.08,8,27.08,8Z"/>
  </g>
</svg>
