<svg id="Layer_1" data-name="Layer 1" xmlns="http://www.w3.org/2000/svg" viewBox="0 0 29.9 29.3">
  <defs>
    <style>
      .cls-1 {
        fill: none;
        stroke: #0991ca;
        stroke-miterlimit: 10;
      }
    </style>
  </defs>
  <title>icon-2</title>
  <g>
    <path class="cls-1" d="M15,28.8H4.49a3.71,3.71,0,0,1-4-4q0-6.57,0-13.15A3.61,3.61,0,0,1,4.41,7.75c0.74,0,1.49,0,2.23,0a0.41,0.41,0,0,0,.5-0.51c0-.94,0-1.88,0-2.82A3.81,3.81,0,0,1,10.9.57c2.81-.12,5.63-0.08,8.44,0A3.79,3.79,0,0,1,22.7,4.14c0.06,1,.06,2.07.05,3.11a0.41,0.41,0,0,0,.51.5c0.88,0,1.76,0,2.64,0a3.54,3.54,0,0,1,3.49,3.61c0,1.41,0,2.82,0,4.23q0,4.58,0,9.16a3.73,3.73,0,0,1-4.06,4H15Zm-2.44-7.87v4.2h4.82V20.91h4.16V16.13H17.34V12H12.53v4.12H8.36v4.8h4.2ZM9.55,7.7H20.34c0-1.08,0-2.12,0-3.15a1.68,1.68,0,0,0-1.69-1.61q-3.7,0-7.39,0a1.68,1.68,0,0,0-1.69,1.6C9.52,5.58,9.55,6.61,9.55,7.7Z"/>
    <path class="cls-1" d="M9.55,7.7c0-1.09,0-2.12,0-3.16a1.68,1.68,0,0,1,1.69-1.6q3.7,0,7.39,0a1.68,1.68,0,0,1,1.69,1.61c0,1,0,2.07,0,3.15H9.55Z"/>
  </g>
</svg>
