<?xml version="1.0" encoding="utf-8"?>
<!-- Generator: Adobe Illustrator 19.2.1, SVG Export Plug-In . SVG Version: 6.00 Build 0)  -->
<svg version="1.1" id="Layer_1" xmlns="http://www.w3.org/2000/svg" xmlns:xlink="http://www.w3.org/1999/xlink" x="0px" y="0px"
	 viewBox="0 0 482.8 96" style="enable-background:new 0 0 482.8 96;" xml:space="preserve">
<style type="text/css">
	.st0{fill-rule:evenodd;clip-rule:evenodd;fill:#009353;}
	.st1{fill-rule:evenodd;clip-rule:evenodd;fill:#005495;}
	.st2{fill-rule:evenodd;clip-rule:evenodd;fill:#F58220;}
	.st3{fill-rule:evenodd;clip-rule:evenodd;fill:#C4094A;}
	.st4{fill-rule:evenodd;clip-rule:evenodd;fill:#8A8C8E;}
</style>
<path class="st0" d="M40.8,2.3v31.3c0,5.3-4.3,9.6-9.6,9.6H0C0.3,41.1,0.7,39,1.2,37C6.1,18.7,21.7,4.7,40.8,2.3L40.8,2.3z"/>
<path class="st1" d="M93.3,43.1H62.1c-5.3,0-9.6-4.4-9.6-9.6V2.3C72.9,4.8,89.3,20.5,93,40.6l0,0.4l0,0.2
	C93.2,41.9,93.3,42.5,93.3,43.1L93.3,43.1z"/>
<path class="st2" d="M40.8,95.9V64.7c0-5.3-4.3-9.6-9.6-9.6H0c0.2,1.6,0.5,3.2,0.8,4.8C5.2,78.9,21.2,93.5,40.8,95.9L40.8,95.9z"/>
<path class="st3" d="M93.3,55.2H62.1c-5.3,0-9.6,4.3-9.6,9.6V96C72.9,93.5,89.3,77.8,93,57.7c0-0.1,0-0.3,0-0.5l0-0.2
	C93.2,56.4,93.3,55.8,93.3,55.2L93.3,55.2z"/>
<path class="st3" d="M140.9,96h15.8l-17.4-27.9l0.3-0.2c8.1-3,12.6-9.2,12.6-17.9c0-8.1-3.9-14.1-11.3-17.4c-2.4-1-5-1.7-7.5-2.1
	c-1.2-0.1-2.4-0.3-3.6-0.3h-22.4v12.8h26.6c3.3,0,6,2.7,6,6l0,0c0,3.3-2.8,6-6,6h-0.3c-0.4,0-0.7,0.1-1.1,0.1h-10.4h-14.9V96h13.5
	V69.7h3.7L140.9,96z"/>
<rect x="275.6" y="30" class="st3" width="13.1" height="65.9"/>
<path class="st1" d="M432.7,30.1V96h12c21.9,0,38.1-9,38.1-32.9c0-15.4-6.4-26.7-21.7-31c-5.3-1.5-11-1.9-16.4-1.9H432.7z
	 M446.2,82.9V43.2l0.3,0c0.8,0,1.6,0,2.3,0c2.9,0,5.8,0.4,8.5,1.3c8.7,2.9,11.9,9.9,11.9,18.6c0,8.7-3.4,15.5-11.9,18.5
	c-2.7,0.9-5.7,1.4-8.5,1.4c-0.8,0-1.5,0-2.3,0H446.2z"/>
<polygon class="st1" points="355.6,96 369.1,96 369.1,30 356,30 334,77 311.2,30 298.1,30 298.1,96 311.6,96 311.6,61.6 328.3,96 
	340,96 355.6,62.7 "/>
<path class="st3" d="M216,30.1V96h12c21.9,0,38.1-9,38.1-32.9c0-15.4-6.4-26.7-21.7-31c-5.3-1.5-10.9-1.9-16.4-1.9H216z M229.5,82.9
	V43.2l0.3,0c0.7,0,1.5,0,2.3,0c2.8,0,5.7,0.4,8.5,1.3c8.7,2.9,11.9,9.9,11.9,18.6c0,8.7-3.4,15.5-11.9,18.5
	c-2.8,0.9-5.7,1.4-8.5,1.4c-0.7,0-1.5,0-2.3,0H229.5z"/>
<polygon class="st3" points="206.6,42.9 206.6,30.1 161.8,30.1 161.8,96 206.6,96 206.6,83.1 175.3,83.1 175.3,68.6 201.3,68.6 
	201.3,55.2 175.3,55.2 175.3,42.9 "/>
<rect x="361.3" y="13.5" class="st4" width="121.5" height="3"/>
<polygon class="st1" points="423.3,42.9 423.3,30.1 378.5,30.1 378.5,96 423.3,96 423.3,83.1 392,83.1 392,68.6 418,68.6 418,55.2 
	392,55.2 392,42.9 "/>
<polygon class="st4" points="114.8,4.7 114.8,20.7 111.3,20.7 111.3,4.7 107.4,4.7 107.4,1.6 118.6,1.6 118.6,4.7 "/>
<path class="st4" d="M129,13.5c0-1.5-0.2-2.5-0.7-3.4c-0.4-0.8-1.1-1.2-2-1.2c-0.9,0-1.6,0.4-2.1,1.2c-0.5,0.8-0.7,1.9-0.7,3.4
	c0,1.4,0.2,2.5,0.7,3.3c0.5,0.8,1.1,1.2,2.1,1.2c0.9,0,1.6-0.4,2-1.2C128.8,16.1,129,14.9,129,13.5L129,13.5z M132.4,13.5
	c0,1.1-0.1,2.1-0.4,3c-0.3,0.9-0.7,1.7-1.2,2.3c-0.5,0.7-1.2,1.2-1.9,1.6c-0.8,0.4-1.6,0.6-2.6,0.6c-1,0-1.9-0.2-2.6-0.6
	c-0.8-0.4-1.4-0.9-2-1.6c-0.5-0.7-0.9-1.4-1.2-2.3c-0.3-0.9-0.4-1.9-0.4-3c0-1,0.1-2,0.4-2.9c0.3-0.9,0.7-1.7,1.2-2.3
	c0.6-0.7,1.2-1.2,2-1.5c0.8-0.4,1.6-0.6,2.6-0.6c1,0,1.8,0.2,2.6,0.6c0.8,0.4,1.4,0.9,1.9,1.5c0.5,0.7,0.9,1.4,1.2,2.3
	C132.3,11.5,132.4,12.5,132.4,13.5L132.4,13.5z"/>
<path class="st4" d="M141.7,20.7c-0.4,0-0.8,0.1-1.2,0.1c-1.3,0-2.2-0.4-2.9-1.1c-0.6-0.7-0.9-1.8-0.9-3.3V9.1h-1.7V6.5h1.7V3.3
	l3.4-1v4.2h2.6v2.7H140v7c0,0.6,0.2,1,0.5,1.2c0.3,0.2,0.7,0.3,1.1,0.3c0.2,0,0.4,0,0.6-0.1c0.2,0,0.3-0.1,0.5-0.1v3
	C142.4,20.6,142.1,20.7,141.7,20.7L141.7,20.7z"/>
<path class="st4" d="M152.7,13.8c-0.6,0-1.2,0.1-1.8,0.1c-0.6,0-1.1,0.2-1.5,0.3c-0.4,0.2-0.8,0.4-1,0.7c-0.2,0.3-0.4,0.7-0.4,1.3
	c0,0.7,0.2,1.2,0.7,1.5c0.5,0.4,1.2,0.6,2.1,0.6c0.3,0,0.7,0,1.1-0.1c0.4,0,0.7-0.1,0.8-0.2V13.8z M156,20c-0.2,0.1-0.6,0.2-0.9,0.4
	c-0.3,0.1-0.7,0.2-1.2,0.3c-0.4,0.1-0.9,0.2-1.4,0.2c-0.5,0-1,0.1-1.5,0.1c-2.1,0-3.6-0.4-4.6-1.2c-1-0.8-1.5-1.9-1.5-3.4
	c0-1,0.2-1.7,0.7-2.3c0.4-0.6,1-1.1,1.7-1.5c0.7-0.4,1.6-0.6,2.6-0.7c0.9-0.2,1.9-0.3,3-0.3v-0.7c0-0.7-0.2-1.3-0.7-1.5
	c-0.5-0.3-1.1-0.5-1.9-0.5c-0.7,0-1.4,0.1-2.1,0.3c-0.7,0.1-1.3,0.4-1.7,0.6l-0.9-2.4c0.6-0.2,1.3-0.5,2.2-0.7
	c0.9-0.2,1.8-0.3,2.9-0.3c1.7,0,3,0.4,4,1.2c0.9,0.7,1.4,2.1,1.4,3.8V20z"/>
<rect x="159.2" class="st4" width="3.4" height="20.7"/>
<polygon class="st4" points="180.9,20.7 180.9,12.5 175.3,12.5 175.3,20.7 171.8,20.7 171.8,1.6 175.3,1.6 175.3,9.5 180.9,9.5 
	180.9,1.6 184.4,1.6 184.4,20.7 "/>
<path class="st4" d="M196.5,11.9c0-1-0.2-1.8-0.7-2.4c-0.5-0.5-1.1-0.8-1.9-0.8c-0.9,0-1.6,0.3-2.2,1c-0.6,0.7-0.9,1.7-0.9,3
	L196.5,11.9z M199.8,12.6c0,0.2,0,0.4,0,0.6c0,0.2,0,0.4,0,0.6L191,15c0.2,1.1,0.6,1.8,1.3,2.3c0.7,0.5,1.5,0.7,2.5,0.7
	c0.7,0,1.4,0,2.1-0.2c0.7-0.1,1.3-0.4,1.7-0.7l1,2.7c-0.6,0.3-1.3,0.5-2.2,0.7c-0.9,0.2-1.8,0.3-2.8,0.3c-1.1,0-2.1-0.2-3-0.6
	c-0.8-0.4-1.6-0.8-2.2-1.5c-0.6-0.7-1-1.4-1.3-2.3c-0.3-0.9-0.4-1.9-0.4-3c0-1.1,0.1-2.1,0.4-3c0.3-0.9,0.7-1.6,1.3-2.3
	c0.5-0.7,1.2-1.2,2-1.5c0.7-0.4,1.6-0.5,2.6-0.5c0.9,0,1.8,0.1,2.5,0.4c0.7,0.3,1.4,0.7,1.9,1.3c0.5,0.6,0.8,1.3,1.1,2.1
	C199.7,10.8,199.8,11.6,199.8,12.6L199.8,12.6z"/>
<path class="st4" d="M209.3,13.8c-0.7,0-1.3,0.1-1.8,0.1c-0.6,0-1.1,0.2-1.5,0.3c-0.4,0.2-0.8,0.4-1,0.7c-0.3,0.3-0.4,0.7-0.4,1.3
	c0,0.7,0.2,1.2,0.8,1.5c0.5,0.4,1.2,0.6,2.1,0.6c0.4,0,0.7,0,1.1-0.1c0.3,0,0.6-0.1,0.8-0.2V13.8z M212.5,20
	c-0.3,0.1-0.6,0.2-0.9,0.4c-0.4,0.1-0.8,0.2-1.2,0.3c-0.5,0.1-0.9,0.2-1.4,0.2c-0.5,0-1,0.1-1.5,0.1c-2.1,0-3.6-0.4-4.6-1.2
	c-1-0.8-1.5-1.9-1.5-3.4c0-1,0.2-1.7,0.7-2.3c0.5-0.6,1-1.1,1.8-1.5c0.7-0.4,1.6-0.6,2.5-0.7c0.9-0.2,2-0.3,3-0.3v-0.7
	c0-0.7-0.2-1.3-0.7-1.5c-0.5-0.3-1.1-0.5-1.9-0.5c-0.7,0-1.3,0.1-2,0.3c-0.7,0.1-1.3,0.4-1.8,0.6l-0.9-2.4c0.6-0.2,1.4-0.5,2.2-0.7
	c0.9-0.2,1.8-0.3,2.8-0.3c1.7,0,3.1,0.4,4,1.2c0.9,0.7,1.4,2.1,1.4,3.8V20z"/>
<rect x="215.8" class="st4" width="3.4" height="20.7"/>
<path class="st4" d="M228.6,20.7c-0.4,0-0.8,0.1-1.2,0.1c-1.3,0-2.2-0.4-2.9-1.1c-0.6-0.7-0.9-1.8-0.9-3.3V9.1h-1.7V6.5h1.7V3.3
	l3.4-1v4.2h2.5v2.7h-2.5v7c0,0.6,0.1,1,0.5,1.2c0.3,0.2,0.7,0.3,1.1,0.3c0.2,0,0.4,0,0.6-0.1c0.2,0,0.3-0.1,0.4-0.1v3
	C229.3,20.6,229,20.7,228.6,20.7L228.6,20.7z"/>
<path class="st4" d="M240.1,20.7v-9.3c0-0.8-0.2-1.4-0.7-1.7c-0.4-0.4-1-0.6-1.8-0.6c-0.3,0-0.7,0-1,0.1c-0.4,0.1-0.7,0.2-0.9,0.4
	v11.1h-3.4V0h3.4v6.9c0.4-0.2,0.8-0.3,1.4-0.5c0.5-0.1,1-0.2,1.5-0.2c1.6,0,2.9,0.4,3.7,1.2c0.9,0.8,1.3,2,1.3,3.6v9.6H240.1z"/>
<path class="st4" d="M263.3,15.1c0,0.9-0.1,1.6-0.4,2.4c-0.3,0.7-0.7,1.3-1.2,1.8c-0.6,0.5-1.2,0.9-2,1.2c-0.8,0.3-1.6,0.4-2.6,0.4
	c-0.9,0-1.8-0.1-2.6-0.3c-0.8-0.2-1.5-0.4-2-0.7l1.1-3.2c0.4,0.2,0.9,0.5,1.5,0.7c0.6,0.1,1.2,0.2,1.8,0.2c0.9,0,1.5-0.2,2.1-0.6
	c0.5-0.4,0.8-1,0.8-1.7c0-0.3-0.1-0.7-0.2-0.9c-0.1-0.3-0.3-0.5-0.5-0.7c-0.2-0.2-0.5-0.4-0.8-0.6c-0.3-0.2-0.6-0.4-0.9-0.5
	c-0.5-0.2-1.1-0.5-1.6-0.8c-0.6-0.3-1-0.7-1.5-1.1c-0.4-0.5-0.8-1-1.1-1.6c-0.3-0.6-0.5-1.3-0.5-2.2s0.1-1.6,0.4-2.3
	c0.3-0.7,0.7-1.3,1.2-1.8c0.5-0.5,1.1-0.9,1.8-1.2c0.7-0.2,1.6-0.4,2.5-0.4c0.9,0,1.7,0.1,2.4,0.3c0.7,0.2,1.4,0.4,1.8,0.7l-1.1,3
	c-0.3-0.2-0.7-0.4-1.3-0.6c-0.5-0.2-1.1-0.3-1.7-0.3c-0.8,0-1.4,0.2-1.8,0.7c-0.5,0.4-0.7,0.9-0.7,1.6c0,0.3,0,0.7,0.2,0.9
	c0.1,0.3,0.3,0.5,0.6,0.7c0.2,0.2,0.5,0.4,0.8,0.6c0.3,0.2,0.6,0.3,0.9,0.5c0.5,0.3,1,0.6,1.5,0.8c0.6,0.3,1,0.7,1.5,1.1
	c0.5,0.4,0.8,1,1.1,1.6C263.1,13.6,263.3,14.3,263.3,15.1L263.3,15.1z"/>
<path class="st4" d="M273.8,13.5c0-1.5-0.2-2.5-0.7-3.4C272.6,9.4,272,9,271,9c-0.9,0-1.6,0.4-2,1.2c-0.5,0.8-0.7,1.9-0.7,3.4
	c0,1.4,0.2,2.5,0.7,3.3c0.4,0.8,1.1,1.2,2,1.2c0.9,0,1.6-0.4,2.1-1.2C273.5,16.1,273.8,14.9,273.8,13.5L273.8,13.5z M277.2,13.5
	c0,1.1-0.1,2.1-0.4,3c-0.3,0.9-0.7,1.7-1.2,2.3c-0.5,0.7-1.2,1.2-1.9,1.6c-0.8,0.4-1.6,0.6-2.6,0.6c-1,0-1.8-0.2-2.6-0.6
	c-0.7-0.4-1.4-0.9-1.9-1.6c-0.5-0.7-0.9-1.4-1.2-2.3c-0.3-0.9-0.4-1.9-0.4-3c0-1,0.1-2,0.4-2.9c0.2-0.9,0.7-1.7,1.2-2.3
	c0.5-0.7,1.2-1.2,1.9-1.5c0.8-0.4,1.6-0.6,2.6-0.6c1,0,1.9,0.2,2.6,0.6c0.7,0.4,1.4,0.9,1.9,1.5c0.6,0.7,0.9,1.4,1.2,2.3
	C277.1,11.5,277.2,12.5,277.2,13.5L277.2,13.5z"/>
<rect x="280.6" class="st4" width="3.4" height="20.7"/>
<path class="st4" d="M296.2,20.7c-1,0.2-2,0.3-3.1,0.3c-1.9,0-3.3-0.4-4.2-1.3c-1-0.8-1.5-2.2-1.5-4V6.5h3.4v9.3
	c0,1.5,0.7,2.2,2.2,2.2c0.5,0,0.9,0,1.2-0.1c0.3-0.1,0.6-0.1,0.8-0.2V6.5h3.4V20C298,20.2,297.2,20.5,296.2,20.7L296.2,20.7z"/>
<path class="st4" d="M307.2,20.7c-0.4,0-0.8,0.1-1.2,0.1c-1.3,0-2.2-0.4-2.9-1.1c-0.6-0.7-0.9-1.8-0.9-3.3V9.1h-1.7V6.5h1.7V3.3
	l3.4-1v4.2h2.5v2.7h-2.5v7c0,0.6,0.1,1,0.5,1.2c0.3,0.2,0.7,0.3,1.1,0.3c0.2,0,0.4,0,0.6-0.1c0.2,0,0.3-0.1,0.4-0.1v3
	C307.9,20.6,307.6,20.7,307.2,20.7L307.2,20.7z"/>
<path class="st4" d="M310.9,20.7V6.5h3.5v14.2H310.9z M314.6,2.2c0,0.6-0.2,1-0.6,1.4c-0.4,0.4-0.8,0.6-1.4,0.6
	c-0.6,0-1-0.2-1.4-0.6c-0.4-0.4-0.6-0.8-0.6-1.4c0-0.5,0.2-1,0.6-1.4c0.4-0.4,0.8-0.5,1.4-0.5c0.6,0,1,0.1,1.4,0.5
	C314.5,1.3,314.6,1.7,314.6,2.2L314.6,2.2z"/>
<path class="st4" d="M326.2,13.5c0-1.5-0.2-2.5-0.7-3.4c-0.5-0.8-1.1-1.2-2-1.2c-0.9,0-1.6,0.4-2.1,1.2c-0.5,0.8-0.7,1.9-0.7,3.4
	c0,1.4,0.2,2.5,0.7,3.3c0.4,0.8,1.1,1.2,2.1,1.2c0.9,0,1.5-0.4,2-1.2C325.9,16.1,326.2,14.9,326.2,13.5L326.2,13.5z M329.6,13.5
	c0,1.1-0.1,2.1-0.4,3c-0.3,0.9-0.7,1.7-1.2,2.3c-0.5,0.7-1.1,1.2-1.9,1.6c-0.8,0.4-1.6,0.6-2.6,0.6c-1,0-1.9-0.2-2.7-0.6
	c-0.8-0.4-1.4-0.9-1.9-1.6c-0.5-0.7-0.9-1.4-1.2-2.3c-0.3-0.9-0.4-1.9-0.4-3c0-1,0.1-2,0.4-2.9c0.2-0.9,0.7-1.7,1.2-2.3
	c0.5-0.7,1.2-1.2,1.9-1.5c0.8-0.4,1.6-0.6,2.7-0.6c0.9,0,1.8,0.2,2.6,0.6c0.8,0.4,1.4,0.9,1.9,1.5c0.6,0.7,0.9,1.4,1.2,2.3
	C329.5,11.5,329.6,12.5,329.6,13.5L329.6,13.5z"/>
<path class="st4" d="M340.8,20.7v-9.3c0-0.7-0.2-1.3-0.6-1.7c-0.4-0.4-1-0.6-1.8-0.6c-0.4,0-0.8,0-1.1,0.1c-0.4,0-0.7,0.1-0.9,0.2
	v11.3H333V7.2c0.7-0.3,1.5-0.5,2.4-0.7c0.9-0.2,1.9-0.3,3-0.3c2,0,3.5,0.4,4.5,1.2c0.9,0.8,1.4,2,1.4,3.6v9.7H340.8z"/>
<path class="st4" d="M356.7,16.4c0,1.3-0.4,2.3-1.4,3.1c-0.9,0.7-2.3,1.2-4.1,1.2c-0.8,0-1.5-0.1-2.4-0.3c-0.7-0.2-1.4-0.4-1.9-0.7
	l1.2-2.6c0.1,0.1,0.3,0.2,0.6,0.3c0.2,0.1,0.5,0.2,0.8,0.3c0.2,0.1,0.5,0.1,0.8,0.2c0.3,0,0.6,0,0.7,0c0.7,0,1.2-0.1,1.5-0.4
	c0.4-0.2,0.7-0.7,0.7-1.1c0-0.5-0.2-0.9-0.7-1.1c-0.3-0.3-0.8-0.5-1.5-0.7c-0.4-0.2-0.8-0.4-1.3-0.6c-0.5-0.2-0.8-0.4-1.2-0.7
	c-0.3-0.3-0.7-0.7-0.9-1.1c-0.2-0.4-0.3-1.1-0.3-1.8c0-1.2,0.4-2.2,1.3-3c0.9-0.7,2.1-1.1,3.7-1.1c0.8,0,1.6,0.1,2.3,0.3
	c0.7,0.2,1.2,0.4,1.8,0.7l-1.1,2.4c-0.3-0.2-0.6-0.4-1.1-0.5c-0.5-0.2-1.1-0.3-1.5-0.3c-0.6,0-1,0.1-1.3,0.4
	c-0.3,0.3-0.6,0.7-0.6,1.1c0,0.5,0.2,0.9,0.6,1.1c0.4,0.3,0.9,0.5,1.5,0.7c0.4,0.2,0.9,0.4,1.4,0.5c0.5,0.2,0.9,0.5,1.2,0.8
	c0.4,0.3,0.7,0.7,1,1.1C356.6,15.2,356.7,15.7,356.7,16.4L356.7,16.4z"/>
</svg>
